<svg width="32" height="32" viewBox="0 0 32 32" fill="none" xmlns="http://www.w3.org/2000/svg">
<g filter="url(#filter0_d_27061_21561)">
<path fill-rule="evenodd" clip-rule="evenodd" d="M9.5 21C9.5 19.6193 10.6193 18.5 12 18.5C13.3807 18.5 14.5 19.6193 14.5 21C14.5 22.3807 13.3807 23.5 12 23.5C10.6193 23.5 9.5 22.3807 9.5 21ZM12 19.5C11.1716 19.5 10.5 20.1716 10.5 21C10.5 21.8284 11.1716 22.5 12 22.5C12.8284 22.5 13.5 21.8284 13.5 21C13.5 20.1716 12.8284 19.5 12 19.5Z" fill="#414141"/>
<path fill-rule="evenodd" clip-rule="evenodd" d="M21.5 21C21.5 19.6193 22.6193 18.5 24 18.5C25.3807 18.5 26.5 19.6193 26.5 21C26.5 22.3807 25.3807 23.5 24 23.5C22.6193 23.5 21.5 22.3807 21.5 21ZM24 19.5C23.1716 19.5 22.5 20.1716 22.5 21C22.5 21.8284 23.1716 22.5 24 22.5C24.8284 22.5 25.5 21.8284 25.5 21C25.5 20.1716 24.8284 19.5 24 19.5Z" fill="#414141"/>
<path fill-rule="evenodd" clip-rule="evenodd" d="M5 0.5C4.72386 0.5 4.5 0.723858 4.5 1C4.5 1.27614 4.72386 1.5 5 1.5H8.58051C9.33783 5.79147 10.1033 10.0643 10.7493 14.3709C10.9329 15.5947 11.9842 16.5 13.2217 16.5H23.3597C24.5514 16.5 25.5774 15.6588 25.8111 14.4903L27.2503 7.29417C27.436 6.36599 26.726 5.5 25.7795 5.5H11.1605C10.8575 5.5 10.578 5.58901 10.3444 5.74093L9.49239 0.913107C9.45023 0.674179 9.24262 0.5 9 0.5H5ZM10.666 7.07417C10.6207 6.77187 10.8548 6.5 11.1605 6.5H25.7795C26.095 6.5 26.3316 6.78866 26.2698 7.09806L24.8305 14.2942C24.6903 14.9953 24.0747 15.5 23.3597 15.5H13.2217C12.4792 15.5 11.8484 14.9568 11.7382 14.2225L10.666 7.07417Z" fill="#414141"/>
</g>
<defs>
<filter id="filter0_d_27061_21561" x="0" y="0" width="32" height="32" filterUnits="userSpaceOnUse" colorInterpolationFilters="sRGB">
<feFlood flood-opacity="0" result="BackgroundImageFix"/>
<feColorMatrix in="SourceAlpha" type="matrix" values="0 0 0 0 0 0 0 0 0 0 0 0 0 0 0 0 0 0 127 0" result="hardAlpha"/>
<feOffset dy="4"/>
<feGaussianBlur stdDeviation="2"/>
<feComposite in2="hardAlpha" operator="out"/>
<feColorMatrix type="matrix" values="0 0 0 0 0 0 0 0 0 0 0 0 0 0 0 0 0 0 0.25 0"/>
<feBlend mode="normal" in2="BackgroundImageFix" result="effect1_dropShadow_27061_21561"/>
<feBlend mode="normal" in="SourceGraphic" in2="effect1_dropShadow_27061_21561" result="shape"/>
</filter>
</defs>
</svg>
