<svg width="28" height="30" viewBox="0 0 28 30" fill="none" xmlns="http://www.w3.org/2000/svg">
<g filter="url(#filter0_d_27061_21544)">
<path fill-rule="evenodd" clip-rule="evenodd" d="M4.5 10.5C4.5 6.08172 8.08172 2.5 12.5 2.5C16.9183 2.5 20.5 6.08172 20.5 10.5C20.5 14.9183 16.9183 18.5 12.5 18.5C8.08172 18.5 4.5 14.9183 4.5 10.5ZM12.5 3.5C8.63401 3.5 5.5 6.63401 5.5 10.5C5.5 14.366 8.63401 17.5 12.5 17.5C16.366 17.5 19.5 14.366 19.5 10.5C19.5 6.63401 16.366 3.5 12.5 3.5Z" fill="#414141"/>
<path fill-rule="evenodd" clip-rule="evenodd" d="M17.4463 15.4464C17.6415 15.2512 17.9581 15.2512 18.1534 15.4464L23.3534 20.6464C23.5486 20.8417 23.5486 21.1583 23.3534 21.3535C23.1581 21.5488 22.8415 21.5488 22.6463 21.3535L17.4463 16.1535C17.251 15.9583 17.251 15.6417 17.4463 15.4464Z" fill="#414141"/>
</g>
<defs>
<filter id="filter0_d_27061_21544" x="-2" y="0" width="32" height="32" filterUnits="userSpaceOnUse" colorInterpolationFilters="sRGB">
<feFlood flood-opacity="0" result="BackgroundImageFix"/>
<feColorMatrix in="SourceAlpha" type="matrix" values="0 0 0 0 0 0 0 0 0 0 0 0 0 0 0 0 0 0 127 0" result="hardAlpha"/>
<feOffset dy="4"/>
<feGaussianBlur stdDeviation="2"/>
<feComposite in2="hardAlpha" operator="out"/>
<feColorMatrix type="matrix" values="0 0 0 0 0 0 0 0 0 0 0 0 0 0 0 0 0 0 0.25 0"/>
<feBlend mode="normal" in2="BackgroundImageFix" result="effect1_dropShadow_27061_21544"/>
<feBlend mode="normal" in="SourceGraphic" in2="effect1_dropShadow_27061_21544" result="shape"/>
</filter>
</defs>
</svg>
