<svg width="26" height="27" viewBox="0 0 26 27" fill="none" xmlns="http://www.w3.org/2000/svg">
<g filter="url(#filter0_d_27191_2063)">
<path fill-rule="evenodd" clip-rule="evenodd" d="M4.5 12C4.5 11.7239 4.72386 11.5 5 11.5H21C21.2761 11.5 21.5 11.7239 21.5 12C21.5 12.2761 21.2761 12.5 21 12.5H5C4.72386 12.5 4.5 12.2761 4.5 12Z" fill="#414141"/>
<path fill-rule="evenodd" clip-rule="evenodd" d="M11.3536 5.64645C11.5488 5.84171 11.5488 6.15829 11.3536 6.35355L5.70711 12L11.3536 17.6464C11.5488 17.8417 11.5488 18.1583 11.3536 18.3536C11.1583 18.5488 10.8417 18.5488 10.6464 18.3536L4.64645 12.3536C4.45118 12.1583 4.45118 11.8417 4.64645 11.6464L10.6464 5.64645C10.8417 5.45118 11.1583 5.45118 11.3536 5.64645Z" fill="#414141"/>
</g>
<defs>
<filter id="filter0_d_27191_2063" x="-3" y="0" width="32" height="32" filterUnits="userSpaceOnUse" color-interpolation-filters="sRGB">
<feFlood flood-opacity="0" result="BackgroundImageFix"/>
<feColorMatrix in="SourceAlpha" type="matrix" values="0 0 0 0 0 0 0 0 0 0 0 0 0 0 0 0 0 0 127 0" result="hardAlpha"/>
<feOffset dy="4"/>
<feGaussianBlur stdDeviation="2"/>
<feComposite in2="hardAlpha" operator="out"/>
<feColorMatrix type="matrix" values="0 0 0 0 0 0 0 0 0 0 0 0 0 0 0 0 0 0 0.25 0"/>
<feBlend mode="normal" in2="BackgroundImageFix" result="effect1_dropShadow_27191_2063"/>
<feBlend mode="normal" in="SourceGraphic" in2="effect1_dropShadow_27191_2063" result="shape"/>
</filter>
</defs>
</svg>
